<svg xmlns="http://www.w3.org/2000/svg" xmlns:xlink="http://www.w3.org/1999/xlink" width="49" height="65" version="1.1" viewBox="0 0 49 65"><title>october-leaf</title><desc>Created with Sketch.</desc><defs><path id="path-1" d="M0,0.658 L48.736,0.658 L48.736,65 L0,65"/></defs><g id="Page-1" fill="none" fill-rule="evenodd" stroke="none" stroke-width="1"><g id="logo"><mask id="mask-2" fill="#fff"><use xlink:href="#path-1"/></mask><path id="Fill-1" fill="#DB6A26" d="M48.6875,31.4795 C47.6665,15.0415 29.5165,0.8175 22.0395,0.6595 C14.5595,0.5005 0.5805,17.9095 0.0145,35.5975 C-0.5155,52.1825 13.8335,63.5555 20.0105,65.0005 C20.1825,57.1965 20.8155,28.4665 20.9215,25.1165 C21.1445,18.2705 21.4855,7.6195 22.6445,7.2645 C23.3095,7.0615 24.2155,13.0495 24.1045,16.5885 C24.0815,17.2635 24.0735,19.4515 24.0735,22.5545 C25.3245,21.2995 26.6305,19.9975 27.4245,19.2265 C29.6015,17.1175 30.5645,17.3685 29.5205,19.2505 C28.8775,20.4075 26.1125,24.2575 24.0795,27.0475 C24.0905,32.6745 24.1165,39.7565 24.1435,46.3565 C27.0145,43.0425 30.5295,39.0675 32.3755,37.2995 C36.2485,33.5965 36.6605,34.0645 34.8315,37.9515 C33.7085,40.3335 28.2165,46.6875 24.1635,51.6985 C24.1885,57.5535 24.2085,62.4765 24.2125,64.8275 C35.0855,62.4675 49.6865,47.6185 48.6875,31.4795" mask="url(#mask-2)"/></g></g></svg>