<svg xmlns="http://www.w3.org/2000/svg" xmlns:xlink="http://www.w3.org/1999/xlink" width="100" height="110" x="0" y="0" enable-background="new 0 0 100 110" version="1.1" viewBox="0 0 100 110" xml:space="preserve"><path d="M0,30C5,30,10,0,20,0c5,0,60,0,65,0c10,0,10,30,15,30"/><path fill="#E67E22" d="M0,70c5,0,10-30,20-30c0,10,0,15,0,15v15"/><path fill="#E67E22" d="M100,70c-5,0-10-30-20-30c0,10,0,15,0,15v15"/><path fill="#B9530F" d="M0,110c5,0,10-30,20-30c0,10,0,15,0,15v15"/><path fill="#B9530F" d="M100,110c-5,0-10-30-20-30c0,10,0,15,0,15v15"/></svg>