<?xml version="1.0" encoding="UTF-8"?>
<svg width="957px" height="682px" viewBox="0 0 957 682" version="1.1" xmlns="http://www.w3.org/2000/svg" xmlns:xlink="http://www.w3.org/1999/xlink">
    <!-- Generator: Sketch 63.1 (92452) - https://sketch.com -->
    <title>Group 170@2x</title>
    <desc>Created with Sketch.</desc>
    <defs>
        <polygon id="path-1" points="0 680.043865 956.358147 680.043865 956.358147 0.0123363966 0 0.0123363966"></polygon>
        <path d="M4.90303562,34.7691099 C7.63052671,55.0568602 20.3767305,71.6229202 18.4982698,94.0976827 L18.4982698,94.0976827 C17.2446833,109.10291 0.532755084,125.48127 0.103633914,148.09373 L0.103633914,148.09373 L147.187026,148.09373 C140.291916,130.07915 141.549341,108.757511 132.974594,92.4968482 L132.974594,92.4968482 C120.519333,68.8789622 86.0245929,58.5800808 74.6809014,47.8319502 L74.6809014,47.8319502 C59.0567455,33.0275005 60.7977952,8.76958833 36.8038573,1.82161273 L36.8038573,1.82161273 C34.0640837,1.02773421 31.4793771,0.661565435 29.0551112,0.661565435 L29.0551112,0.661565435 C11.8610934,0.661565435 2.79811568,19.116164 4.90303562,34.7691099" id="path-3"></path>
        <linearGradient x1="49.9999987%" y1="100.000209%" x2="49.9999987%" y2="-0.00038381667%" id="linearGradient-5">
            <stop stop-color="#1F60B3" offset="0%"></stop>
            <stop stop-color="#3679D1" offset="100%"></stop>
        </linearGradient>
        <path d="M163.719423,14.3999868 C155.217518,24.726227 149.568064,45.9941378 140.350736,55.5673263 L140.350736,55.5673263 C117.682841,79.1121746 97.7611226,65.7868713 75.7185485,82.4560641 L75.7185485,82.4560641 C56.7871786,96.7725504 64.6837847,117.827844 51.2994456,138.166424 L51.2994456,138.166424 C40.7059491,154.261937 10.4387064,164.935323 2.93793174,190.297855 L2.93793174,190.297855 C-0.0700791057,200.471011 -0.109354209,209.601183 1.80203415,217.653578 L1.80203415,217.653578 L179.809894,217.653578 C180.642372,213.75611 181.049755,209.610461 180.995848,205.204258 L180.995848,205.204258 C180.724002,182.685384 159.584756,164.985578 178.340543,143.181098 L178.340543,143.181098 C183.922998,136.692793 203.09772,127.092544 208.308217,114.504829 L208.308217,114.504829 C217.122782,93.2144972 195.745574,71.4285736 197.802511,56.6466488 L197.802511,56.6466488 C199.574512,43.9004377 211.629658,35.730523 214.090128,23.2224432 L214.090128,23.2224432 C216.406589,11.4457667 207.626678,2.53130507 196.515674,0.960256839 L196.515674,0.960256839 C195.043243,0.751505352 193.563111,0.650995377 192.086059,0.650995377 L192.086059,0.650995377 C181.264613,0.650995377 170.579474,6.06770988 163.719423,14.3999868" id="path-6"></path>
        <linearGradient x1="49.9998574%" y1="89.2222801%" x2="49.9998574%" y2="6.72757614%" id="linearGradient-8">
            <stop stop-color="#1F60B3" offset="0%"></stop>
            <stop stop-color="#3679D1" offset="100%"></stop>
        </linearGradient>
        <polygon id="path-9" points="0 680.043865 956.358147 680.043865 956.358147 0.0123363966 0 0.0123363966"></polygon>
        <polygon id="path-11" points="0.499439734 0.440386887 2.1673076 58.6121899 88.1054653 58.6121899 69.8179923 0.440386887"></polygon>
    </defs>
    <g id="Teach++/application" stroke="none" stroke-width="1" fill="none" fill-rule="evenodd">
        <g id="1.3-Prihlasovacia-stránka-(1)" transform="translate(-384.000000, -268.000000)">
            <g id="Group-170" transform="translate(384.000000, 268.000000)">
                <g id="Group-19" transform="translate(0.000000, 1.038235)">
                    <path d="M842.7708,416.809062 C806.844774,417.767446 764.318375,450.90532 738.046336,502.196203 C711.773527,553.488627 709.721602,607.384031 729.921853,637.127083 C765.847109,636.168699 808.373508,603.030825 834.646317,551.739942 C860.918356,500.448289 862.970281,446.552114 842.7708,416.809062" id="Fill-1" fill="#B3CDEE"></path>
                    <mask id="mask-2" fill="white">
                        <use xlink:href="#path-1"></use>
                    </mask>
                    <g id="Clip-4"></g>
                    <polygon id="Fill-3" fill="#F7A94A" mask="url(#mask-2)" points="829.319865 655.767378 883.36879 655.767378 883.36879 345.255649 829.319865 345.255649"></polygon>
                    <polygon id="Fill-5" fill="#FFDA99" mask="url(#mask-2)" points="856.344636 289.716883 829.320558 345.256111 883.368713 345.256111"></polygon>
                    <polygon id="Fill-6" fill="#2A3D5E" mask="url(#mask-2)" points="865.006333 307.518611 856.34479 289.717191 847.682476 307.518611"></polygon>
                    <polygon id="Fill-7" fill="#FFFFFF" mask="url(#mask-2)" points="841.589807 655.767378 843.385915 655.767378 843.385915 345.255649 841.589807 345.255649"></polygon>
                    <polygon id="Fill-8" fill="#FFFFFF" mask="url(#mask-2)" points="869.30351 655.767378 871.099618 655.767378 871.099618 345.255649 869.30351 345.255649"></polygon>
                    <path d="M905.225221,655.767301 C940.850741,623.464446 959.950673,583.626367 955.796738,552.606497 C923.236393,537.386468 870.388726,547.993456 823.96575,582.112074 C794.833499,603.52189 773.777187,630.117619 763.310289,655.767301 L905.225221,655.767301 Z" id="Fill-9" fill="#8DB5E8" mask="url(#mask-2)"></path>
                    <path d="M942.494438,566.460194 L896.409726,600.010566 L929.572627,604.126297 C930.180576,604.201086 930.721489,604.508725 931.097508,604.991386 C931.472757,605.474048 931.638421,606.073905 931.56368,606.680702 C931.421902,607.826445 930.445639,608.689992 929.292924,608.689992 C929.198148,608.689992 929.101832,608.684595 929.009368,608.672259 C929.009368,608.672259 890.995972,603.9559 890.991349,603.955129 L819.823528,655.767224 L812.039619,655.767224 L939.79989,562.754648 C940.193631,562.467056 940.659803,562.315164 941.146779,562.315164 C941.877243,562.315164 942.56995,562.668294 942.998366,563.25967 C943.358204,563.753897 943.504605,564.359151 943.409059,564.964405 C943.313513,565.568889 942.989119,566.100125 942.494438,566.460194" id="Fill-10" fill="#F6F6F6" mask="url(#mask-2)"></path>
                    <path d="M589.073336,655.767301 C589.073336,665.902422 514.789486,674.117691 423.15558,674.117691 C331.522445,674.117691 257.237824,665.902422 257.237824,655.767301 C257.237824,645.632951 331.522445,637.417682 423.15558,637.417682 C514.789486,637.417682 589.073336,645.632951 589.073336,655.767301" id="Fill-11" fill="#8DB5E8" mask="url(#mask-2)"></path>
                    <path d="M392.091915,408.607132 C370.75513,440.237653 373.092152,494.904081 401.112526,545.260481 C429.13213,595.617653 474.339978,626.398504 512.44892,624.909655 C533.786476,593.278363 531.448683,538.612706 503.428309,488.256306 C475.408705,437.898364 430.200857,407.117512 392.091915,408.607132" id="Fill-12" fill="#6C9FE0" mask="url(#mask-2)"></path>
                    <path d="M512.451386,627.535303 C511.498238,627.535303 510.619062,627.018717 510.155973,626.186781 L394.223359,417.836607 C393.519864,416.572126 393.975248,414.969937 395.240461,414.264449 C395.63112,414.04702 396.071864,413.932137 396.51492,413.932137 C397.468067,413.932137 398.347243,414.449495 398.810333,415.282202 L417.896395,449.583553 L421.915487,422.199065 C422.104267,420.919164 423.221538,419.954612 424.516031,419.954612 C424.638545,419.954612 424.763371,419.963093 424.888968,419.981598 C425.58784,420.083373 426.199642,420.44961 426.618811,421.013229 C427.037209,421.576077 427.21135,422.267686 427.109639,422.96238 L422.09425,457.129572 L514.742946,623.632376 C515.446441,624.896856 514.991057,626.499046 513.725845,627.203762 C513.334415,627.421962 512.894441,627.535303 512.451386,627.535303" id="Fill-13" fill="#B3CDEE" mask="url(#mask-2)"></path>
                    <path d="M763.171285,336.376296 C724.965256,347.083517 688.447461,393.912479 674.275848,455.73633 C660.102693,517.55864 672.572973,575.632998 702.295452,601.931112 C740.501481,591.224662 777.019275,544.3957 791.190889,482.571848 C805.363273,420.748768 792.893763,362.674409 763.171285,336.376296" id="Fill-14" fill="#6C9FE0" mask="url(#mask-2)"></path>
                    <path d="M700.036639,614.509148 C699.840924,614.509148 699.642897,614.486788 699.448723,614.442069 C698.765262,614.28478 698.184281,613.87151 697.811344,613.27705 C697.439178,612.68259 697.320516,611.979415 697.476934,611.295516 L750.503364,379.978827 L737.087641,360.559797 C736.688506,359.98307 736.538252,359.284522 736.66462,358.595226 C736.790216,357.904387 737.177023,357.30453 737.754151,356.90591 C738.194124,356.600584 738.70961,356.43944 739.245129,356.43944 C740.108124,356.438669 740.916412,356.863504 741.405699,357.572847 L752.094511,373.041917 L758.352767,345.7407 C758.627847,344.539444 759.67731,343.700569 760.905537,343.700569 C761.104335,343.700569 761.304673,343.722928 761.500388,343.767648 C762.180767,343.924937 762.761748,344.338206 763.134685,344.931895 C763.506851,345.527126 763.625513,346.231072 763.469095,346.914971 L743.81361,432.656012 L784.173274,410.616268 C784.556999,410.405778 784.991579,410.294751 785.42847,410.294751 C786.390864,410.294751 787.273893,410.819048 787.73467,411.66332 C788.070622,412.279369 788.146905,412.988711 787.948878,413.661816 C787.750851,414.334921 787.303943,414.89083 786.687518,415.226996 L742.245579,439.495773 L702.593262,612.469016 C702.318182,613.670273 701.266407,614.509148 700.036639,614.509148" id="Fill-15" fill="#B3CDEE" mask="url(#mask-2)"></path>
                    <polygon id="Fill-16" fill="#F7A94A" mask="url(#mask-2)" points="370.246888 479.586595 350.292436 449.547469 274.102291 449.547469 274.102291 479.586595 274.102291 655.768072 550.855595 655.768072 550.855595 479.586595"></polygon>
                    <polygon id="Fill-17" fill="#FFFFFF" mask="url(#mask-2)" points="285.923399 655.768149 532.524268 655.768149 532.524268 497.929351 285.923399 497.929351"></polygon>
                    <path d="M501.019782,516.272031 L251.090217,516.272031 C244.190108,516.272031 239.156997,522.804924 240.911497,529.481999 L274.102137,655.768149 L550.855441,655.768149 L517.543828,529.020926 C515.569726,521.508831 508.782115,516.272031 501.019782,516.272031" id="Fill-18" fill="#FAD189" mask="url(#mask-2)"></path>
                </g>
                <g id="Group-22" transform="translate(351.868764, 507.696870)">
                    <mask id="mask-4" fill="white">
                        <use xlink:href="#path-3"></use>
                    </mask>
                    <g id="Clip-21"></g>
                    <path d="M4.90303562,34.7691099 C7.63052671,55.0568602 20.3767305,71.6229202 18.4982698,94.0976827 L18.4982698,94.0976827 C17.2446833,109.10291 0.532755084,125.48127 0.103633914,148.09373 L0.103633914,148.09373 L147.187026,148.09373 C140.291916,130.07915 141.549341,108.757511 132.974594,92.4968482 L132.974594,92.4968482 C120.519333,68.8789622 86.0245929,58.5800808 74.6809014,47.8319502 L74.6809014,47.8319502 C59.0567455,33.0275005 60.7977952,8.76958833 36.8038573,1.82161273 L36.8038573,1.82161273 C34.0640837,1.02773421 31.4793771,0.661565435 29.0551112,0.661565435 L29.0551112,0.661565435 C11.8610934,0.661565435 2.79811568,19.116164 4.90303562,34.7691099" id="Fill-20" fill="url(#linearGradient-5)" mask="url(#mask-4)"></path>
                </g>
                <path d="M937.278742,656.683192 C937.278742,670.158927 834.112854,681.0821 706.85218,681.0821 C579.589966,681.0821 476.424078,670.158927 476.424078,656.683192 C476.424078,643.208231 579.589966,632.285059 706.85218,632.285059 C834.112854,632.285059 937.278742,643.208231 937.278742,656.683192" id="Fill-23" fill="#8DB5E8"></path>
                <g id="Group-27" transform="translate(701.661605, 440.211601)">
                    <mask id="mask-7" fill="white">
                        <use xlink:href="#path-6"></use>
                    </mask>
                    <g id="Clip-26"></g>
                    <path d="M163.719423,14.3999868 C155.217518,24.726227 149.568064,45.9941378 140.350736,55.5673263 L140.350736,55.5673263 C117.682841,79.1121746 97.7611226,65.7868713 75.7185485,82.4560641 L75.7185485,82.4560641 C56.7871786,96.7725504 64.6837847,117.827844 51.2994456,138.166424 L51.2994456,138.166424 C40.7059491,154.261937 10.4387064,164.935323 2.93793174,190.297855 L2.93793174,190.297855 C-0.0700791057,200.471011 -0.109354209,209.601183 1.80203415,217.653578 L1.80203415,217.653578 L179.809894,217.653578 C180.642372,213.75611 181.049755,209.610461 180.995848,205.204258 L180.995848,205.204258 C180.724002,182.685384 159.584756,164.985578 178.340543,143.181098 L178.340543,143.181098 C183.922998,136.692793 203.09772,127.092544 208.308217,114.504829 L208.308217,114.504829 C217.122782,93.2144972 195.745574,71.4285736 197.802511,56.6466488 L197.802511,56.6466488 C199.574512,43.9004377 211.629658,35.730523 214.090128,23.2224432 L214.090128,23.2224432 C216.406589,11.4457667 207.626678,2.53130507 196.515674,0.960256839 L196.515674,0.960256839 C195.043243,0.751505352 193.563111,0.650995377 192.086059,0.650995377 L192.086059,0.650995377 C181.264613,0.650995377 170.579474,6.06770988 163.719423,14.3999868" id="Fill-25" fill="url(#linearGradient-8)" mask="url(#mask-7)"></path>
                </g>
                <g id="Group-107" transform="translate(0.000000, 1.038235)">
                    <path d="M773.051963,545.818703 L454.477297,545.818703 L454.477297,550.322259 L456.64326,550.322259 C461.324239,550.322259 462.2535,560.490534 462.2535,572.628006 C462.2535,584.10471 461.150099,594.933754 456.275717,594.933754 L454.477297,594.933754 L454.477297,599.437309 L772.487934,599.437309 C778.71614,599.437309 780.31114,588.215815 780.31114,574.281084 C780.31114,559.646262 779.466637,545.818703 773.051963,545.818703" id="Fill-28" fill="#F23E6E"></path>
                    <path d="M637.195411,545.818703 L454.476988,545.818703 L454.476988,550.322259 L456.643723,550.322259 C461.324701,550.322259 462.253191,560.490534 462.253191,572.628006 C462.253191,584.10471 461.14979,594.933754 456.275409,594.933754 L454.476988,594.933754 L454.476988,599.437309 L636.631382,599.437309 C642.381087,599.437309 644.276595,589.447141 644.276595,573.304195 C644.276595,557.394099 642.961298,545.818703 637.195411,545.818703" id="Fill-30" fill="#BF2251"></path>
                    <path d="M633.521826,550.322105 L456.64326,550.322105 C461.324239,550.322105 462.2535,560.49038 462.2535,572.627852 C462.2535,583.963459 461.174756,594.659115 456.452169,594.922034 C499.726753,594.925889 621.177142,594.933599 633.154282,594.933599 C638.029434,594.933599 639.131294,584.104556 639.131294,572.627852 C639.131294,560.49038 638.203574,550.322105 633.521826,550.322105" id="Fill-32" fill="#DADADA"></path>
                    <path d="M751.863891,540.863481 C749.002908,540.863481 747.221439,533.585778 747.221439,523.430611 C747.221439,514.19065 749.052222,507.997008 751.863891,507.997008 L755.582475,507.997008 L755.582475,503.041631 L441.477661,503.041631 C438.170541,503.041631 434.582176,509.313147 434.582176,524.43063 C434.582176,539.044634 438.57584,545.818858 441.942292,545.818858 L755.582475,545.818858 L755.582475,540.863481 L751.863891,540.863481 Z" id="Fill-34" fill="#2A3D5E"></path>
                    <path d="M751.863891,540.863481 C749.002908,540.863481 747.221439,533.585778 747.221439,523.430611 C747.221439,514.19065 749.052222,507.997008 751.863891,507.997008 L755.582475,507.997008 L755.582475,503.041631 L584.466714,503.041631 L584.466714,545.818858 L755.582475,545.818858 L755.582475,540.863481 L751.863891,540.863481 Z" id="Fill-36" fill="#232E4D"></path>
                    <path d="M747.221131,523.430379 C747.221131,514.191189 749.051914,507.996776 751.863583,507.996776 L444.147244,507.996776 C441.336346,507.996776 439.504793,514.191189 439.504793,523.430379 C439.504793,533.585547 441.286261,540.86325 444.147244,540.86325 L751.863583,540.86325 C749.00337,540.86325 747.221131,533.585547 747.221131,523.430379" id="Fill-38" fill="#FFFFFF"></path>
                    <path d="M747.221131,523.430379 C747.221131,514.191189 749.051914,507.996776 751.863583,507.996776 L580.747051,507.996776 C577.936153,507.996776 576.1046,514.191189 576.1046,523.430379 C576.1046,533.585547 577.886068,540.86325 580.747051,540.86325 L751.863583,540.86325 C749.00337,540.86325 747.221131,533.585547 747.221131,523.430379" id="Fill-40" fill="#DADADA"></path>
                    <path d="M795.903844,650.581697 C790.164926,650.581697 789.573929,637.527476 789.573929,627.602074 C789.573929,614.997361 790.192665,604.623993 795.903844,604.623993 L797.622129,604.623993 L797.622129,599.437309 L431.850103,599.437309 C427.588293,599.437309 423.983748,609.65493 423.983748,627.602074 C423.983748,642.754253 426.110414,655.767609 431.850103,655.767609 L797.622129,655.767609 L797.622129,650.581697 L795.903844,650.581697 Z" id="Fill-42" fill="#2A3D5E"></path>
                    <path d="M795.903844,650.581697 C790.164926,650.581697 789.573929,637.527476 789.573929,627.602074 C789.573929,614.997361 790.192665,604.623993 795.903844,604.623993 L797.622129,604.623993 L797.622129,599.437309 L554.19662,599.437309 C549.933269,599.437309 546.330264,609.65493 546.330264,627.602074 C546.330264,642.754253 548.456161,655.767609 554.19662,655.767609 L797.622129,655.767609 L797.622129,650.581697 L795.903844,650.581697 Z" id="Fill-44" fill="#232E4D"></path>
                    <path d="M789.574006,627.602305 C789.574006,614.996821 790.192743,604.623453 795.903921,604.623453 L559.521839,604.623453 C553.80989,604.623453 552.301189,614.996821 552.301189,627.602305 C552.301189,637.527707 553.782151,650.581928 559.521839,650.581928 L795.903921,650.581928 C790.165003,650.581928 789.574006,637.527707 789.574006,627.602305" id="Fill-46" fill="#DADADA"></path>
                    <path d="M795.906079,650.581697 L594.82127,650.581697 C591.687518,646.586246 594.45989,636.52206 606.2051,632.91058 C654.988985,617.911834 733.474543,613.924094 789.583098,625.663718 C789.573852,626.299813 789.573852,626.950558 789.573852,627.600532 C789.573852,637.527476 790.163308,650.581697 795.906079,650.581697" id="Fill-48" fill="#FFFFFF"></path>
                    <path d="M791.264089,645.569265 L585.652408,645.569265 C585.592307,645.295551 585.541452,645.01644 585.499072,644.732703 L791.022913,644.732703 C791.096114,645.021066 791.180101,645.295551 791.264089,645.569265" id="Fill-50" fill="#878787"></path>
                    <path d="M790.121854,639.720348 L585.350822,639.720348 C585.378561,639.442008 585.415547,639.162897 585.462549,638.884557 L790.028619,638.884557 C790.056358,639.162897 790.084098,639.446634 790.121854,639.720348" id="Fill-52" fill="#878787"></path>
                    <path d="M621.761436,594.933908 C586.338566,594.929282 492.81917,594.923877 456.450088,594.919258 C461.175757,594.660194 462.25296,583.961454 462.25296,572.625847 C462.25296,568.900256 462.164349,565.356626 461.909303,562.239373 C507.573306,556.706499 569.61033,557.161403 600.947071,570.865598 C614.217934,576.669101 623.734767,585.804974 621.761436,594.933908" id="Fill-54" fill="#FFFFFF"></path>
                    <path d="M637.697335,589.252072 C637.617971,589.540435 637.544,589.818775 637.460012,590.088634 L460.576823,590.088634 C460.660041,589.818775 460.739405,589.540435 460.813376,589.252072 L637.697335,589.252072 Z" id="Fill-56" fill="#878787"></path>
                    <path d="M638.658188,583.571084 C638.630449,583.85405 638.598086,584.133161 638.565724,584.406875 L461.686388,584.406875 C461.718751,584.133161 461.751113,583.85405 461.778852,583.571084 L638.658188,583.571084 Z" id="Fill-58" fill="#878787"></path>
                    <path d="M639.038985,577.889248 C639.029738,578.172985 639.020492,578.44747 639.006622,578.72581 L462.127286,578.72581 C462.141927,578.44747 462.151173,578.167588 462.164272,577.889248 L639.038985,577.889248 Z" id="Fill-60" fill="#878787"></path>
                    <mask id="mask-10" fill="white">
                        <use xlink:href="#path-9"></use>
                    </mask>
                    <g id="Clip-63"></g>
                    <polygon id="Fill-62" fill="#878787" mask="url(#mask-10)" points="462.253345 573.044128 639.131911 573.044128 639.131911 572.208338 462.253345 572.208338"></polygon>
                    <path d="M387.59363,655.767995 L492.700277,655.767995 C488.203456,629.065093 457.654198,598.543306 414.248623,580.565321 C370.587231,562.480935 327.160082,562.571145 305.240775,578.559886 C309.454041,605.373815 340.111944,636.15004 383.774106,654.234427 C385.047024,654.761808 386.321483,655.270684 387.59363,655.767995" id="Fill-64" fill="#8DB5E8" mask="url(#mask-10)"></path>
                    <path d="M760.010873,545.818703 L736.014214,545.818703 C742.429658,545.818703 743.27339,559.647033 743.27339,574.281084 C743.27339,588.215815 741.67839,599.437309 735.450185,599.437309 L759.446844,599.437309 C765.67505,599.437309 767.27082,588.215815 767.27082,574.281084 C767.27082,559.647033 766.425547,545.818703 760.010873,545.818703" id="Fill-65" fill="#FAD189" mask="url(#mask-10)"></path>
                    <path d="M466.303721,656.71597 L358.168885,605.944759 L335.03445,613.452998 C334.8449,613.50697 334.606035,613.564797 334.325561,613.564797 C333.326182,613.564797 332.450858,612.924846 332.14804,611.971859 C331.9608,611.395133 332.009344,610.774458 332.285194,610.230114 C332.561815,609.683458 333.034921,609.27867 333.617443,609.088998 L352.10095,603.09428 L311.342151,583.955132 C310.199453,583.417727 309.706313,582.0507 310.242602,580.907271 C310.619392,580.106947 311.432303,579.59036 312.316102,579.59036 C312.653595,579.59036 312.981071,579.662837 313.288513,579.807789 L405.273781,622.996743 L400.260704,587.613644 C400.089646,586.354561 400.96497,585.194939 402.210148,585.023772 C402.314941,585.008351 402.426668,584.99987 402.536083,584.99987 C403.671076,584.99987 404.642716,585.85031 404.795281,586.976778 L410.23061,625.321383 L428.841255,634.059407 L421.618293,582.749249 L423.203276,583.48712 C424.187245,583.945108 425.158885,584.416975 426.122049,584.890385 L426.573581,585.111669 L433.789607,636.384817 L473.230798,654.905604 L472.82704,656.71597 L466.303721,656.71597 Z" id="Fill-66" fill="#F6F6F6" mask="url(#mask-10)"></path>
                    <path d="M466.481328,449.547546 L775.139256,449.547546 L775.139256,455.450512 L773.23142,455.450512 C768.232983,455.450512 767.339937,467.715203 767.339937,476.294396 C767.340707,484.873589 768.21372,497.13828 773.23142,497.13828 L775.139256,497.13828 L775.139256,503.042017 L466.481328,503.042017 C460.040456,503.042017 459.649797,487.30463 459.649797,476.294396 C459.649797,465.284933 460.040456,449.547546 466.481328,449.547546" id="Fill-67" fill="#3C5685" mask="url(#mask-10)"></path>
                    <path d="M573.3068,449.547546 L775.139025,449.547546 L775.139025,455.450512 L773.231189,455.450512 C768.233522,455.450512 767.339706,467.715203 767.339706,476.294396 C767.340476,484.873589 768.213488,497.13828 773.231189,497.13828 L775.139025,497.13828 L775.139025,503.042017 L573.3068,503.042017 C566.865928,503.042017 564.934206,487.30463 564.934206,476.294396 C564.934206,465.284933 566.865928,449.547546 573.3068,449.547546" id="Fill-68" fill="#4B6BA6" mask="url(#mask-10)"></path>
                    <path d="M576.622165,455.450666 L773.230958,455.450666 C768.233291,455.450666 767.340245,467.715357 767.340245,476.29455 C767.341016,484.873743 768.213257,497.137663 773.230958,497.137663 L576.622165,497.137663 C571.604465,497.137663 570.730682,484.873743 570.730682,476.29455 C570.730682,467.715357 571.623728,455.450666 576.622165,455.450666" id="Fill-69" fill="#EDEDED" mask="url(#mask-10)"></path>
                    <path d="M589.369066,497.137972 L589.369066,497.15185 C626.932472,497.144911 720.929598,497.138743 768.751088,497.137972 L773.230958,497.137972 C768.212487,497.137972 767.335622,484.875593 767.335622,476.294087 C767.335622,473.464426 767.429627,470.23923 767.744004,467.188285 C715.689214,462.844331 648.224566,463.695542 613.449714,475.516123 C598.099958,480.732106 587.105245,488.938123 589.369066,497.137972" id="Fill-70" fill="#FFFFFF" mask="url(#mask-10)"></path>
                    <path d="M900.842824,449.351012 C900.18479,448.305502 899.052879,447.680201 897.816947,447.680201 C897.142732,447.680201 896.483928,447.871415 895.913735,448.231484 C883.815621,455.861545 872.535812,465.815475 871.912452,486.797373 C871.691309,494.265519 872.596684,500.939509 873.472778,507.397613 C875.256558,520.545899 876.797621,531.90001 867.807831,545.601891 C862.816329,553.208051 854.707256,559.084802 846.863247,564.770339 C835.269831,573.174509 823.282674,581.863958 819.620338,596.734713 C816.642235,608.826695 819.177283,621.785309 821.628343,634.318317 C823.124715,641.960714 824.571003,649.367178 824.48008,655.767455 L831.659892,655.767455 C831.724616,648.704868 830.208981,640.938335 828.644802,632.943579 C826.341684,621.175428 823.960742,609.005573 826.561285,598.445617 C829.596408,586.119244 840.021698,578.563201 851.060331,570.561506 C859.423679,564.499709 868.072123,558.231277 873.783302,549.527949 C884.240954,533.590096 882.45178,520.399404 880.554732,506.420724 C879.717935,500.256381 878.85494,493.883861 879.05836,487.010175 C879.65321,466.943484 892.709865,458.708168 899.725553,454.283257 C900.53307,453.77361 901.094017,452.980225 901.305143,452.049598 C901.516268,451.117429 901.352916,450.159046 900.842824,449.351012" id="Fill-71" fill="#6C9FE0" mask="url(#mask-10)"></path>
                    <path d="M303.007929,655.767301 C303.007929,658.58771 235.177279,660.874569 151.503733,660.874569 C67.830958,660.874569 0.00030821256,658.58771 0.00030821256,655.767301 C0.00030821256,652.946892 67.830958,650.660804 151.503733,650.660804 C235.177279,650.660804 303.007929,652.946892 303.007929,655.767301" id="Fill-72" fill="#8DB5E8" mask="url(#mask-10)"></path>
                    <path d="M156.715685,594.631974 C156.715685,567.271389 177.291955,544.724311 203.8044,541.627104 C230.316844,544.724311 250.893115,567.271389 250.893115,594.631974 C250.893115,621.99256 230.316844,644.540409 203.8044,647.636845 C177.291955,644.540409 156.715685,621.99256 156.715685,594.631974 M136.459185,594.631974 C136.459185,628.395921 163.81305,655.767301 197.55539,655.767301 L210.052639,655.767301 C243.79575,655.767301 271.148844,628.395921 271.148844,594.631974 C271.148844,560.868028 243.79575,533.496648 210.052639,533.496648 L197.55539,533.496648 C163.81305,533.496648 136.459185,560.868028 136.459185,594.631974" id="Fill-73" fill="#3C5685" mask="url(#mask-10)"></path>
                    <path d="M150.467137,594.631974 C150.467137,624.107481 174.346676,648.003852 203.804092,648.003852 C233.261507,648.003852 257.141046,624.107481 257.141046,594.631974 C257.141046,565.156468 233.261507,541.260867 203.804092,541.260867 C174.346676,541.260867 150.467137,565.156468 150.467137,594.631974" id="Fill-74" fill="#37BAE6" mask="url(#mask-10)"></path>
                    <path d="M156.715685,594.631974 C156.715685,565.156468 180.595223,541.260867 210.052639,541.260867 C239.510054,541.260867 263.389593,565.156468 263.389593,594.631974 C263.389593,624.107481 239.510054,648.003852 210.052639,648.003852 C180.595223,648.003852 156.715685,624.107481 156.715685,594.631974 M148.956434,594.631974 C148.956434,628.395921 176.310298,655.767301 210.052639,655.767301 C243.79575,655.767301 271.148844,628.395921 271.148844,594.631974 C271.148844,560.868028 243.79575,533.496648 210.052639,533.496648 C176.310298,533.496648 148.956434,560.868028 148.956434,594.631974" id="Fill-75" fill="#2A3D5E" mask="url(#mask-10)"></path>
                    <polygon id="Fill-76" fill="#2060B3" mask="url(#mask-10)" points="11.991549 654.799742 147.464068 616.888453 143.893426 603.557435 7.63342343 638.532661"></polygon>
                    <path d="M141.767453,611.272231 C142.759897,614.977006 145.31652,617.489004 147.464762,616.888376 C149.597593,616.291603 150.52146,612.845122 149.541344,609.186609 C148.561228,605.528868 146.038508,603.006846 143.893349,603.557357 C141.732779,604.112495 140.775008,607.567457 141.767453,611.272231" id="Fill-77" fill="#2060B3" mask="url(#mask-10)"></path>
                    <path d="M3.97964058,648.230996 C5.192457,652.757683 8.79083865,655.696058 11.9916261,654.800128 C15.1654449,653.911907 16.750428,649.583374 15.5561043,645.12608 C14.3625512,640.667243 10.8258121,637.712676 7.63350048,638.533047 C4.41344976,639.358814 2.76682415,643.70431 3.97964058,648.230996" id="Fill-78" fill="#367AD1" mask="url(#mask-10)"></path>
                    <path d="M208.829266,550.789654 C212.311298,556.179118 204.749302,563.910954 193.825479,570.978168 C182.900885,578.045381 172.751445,581.771744 169.269414,576.381509 C165.787382,570.992046 170.436769,558.753569 181.361363,551.687127 C192.285186,544.619914 205.347235,545.400191 208.829266,550.789654" id="Fill-79" fill="#FFFFFF" mask="url(#mask-10)"></path>
                    <path d="M745.151869,401.956349 L441.949304,401.956349 L441.949304,407.20857 L443.824007,407.20857 C448.733833,407.20857 449.609927,418.119342 449.609927,425.751716 C449.609927,433.384862 448.752325,444.294862 443.824007,444.294862 L441.949304,444.294862 L441.949304,449.547854 L745.151869,449.547854 C751.479473,449.547854 751.863968,435.546044 751.863968,425.751716 C751.863968,415.957388 751.479473,401.956349 745.151869,401.956349" id="Fill-80" fill="#F23E6E" mask="url(#mask-10)"></path>
                    <path d="M629.54049,401.956349 L441.949227,401.956349 L441.949227,407.20857 L443.823929,407.20857 C448.733756,407.20857 449.60985,418.119342 449.60985,425.751716 C449.60985,433.384862 448.752248,444.294862 443.823929,444.294862 L441.949227,444.294862 L441.949227,449.547854 L629.54049,449.547854 C635.868094,449.547854 637.765142,435.546044 637.765142,425.751716 C637.765142,415.957388 635.868094,401.956349 629.54049,401.956349" id="Fill-81" fill="#BF2251" mask="url(#mask-10)"></path>
                    <path d="M626.283839,407.208955 L443.823544,407.208955 C448.73337,407.208955 449.610235,418.118956 449.610235,425.752102 C449.610235,433.384476 448.752634,444.295248 443.823544,444.295248 L626.283839,444.295248 C631.212158,444.295248 632.0713,433.384476 632.0713,425.752102 C632.0713,418.118956 631.193665,407.208955 626.283839,407.208955" id="Fill-82" fill="#DADADA" mask="url(#mask-10)"></path>
                    <path d="M443.823621,444.294939 L617.528368,444.294939 C620.261443,440.48068 617.843515,430.852122 607.58466,427.399473 C565.553713,413.25271 498.270141,409.351325 449.41845,420.037729 C449.558686,422.0023 449.605689,423.966871 449.605689,425.75719 C449.605689,433.387252 448.748858,444.294939 443.823621,444.294939" id="Fill-83" fill="#FFFFFF" mask="url(#mask-10)"></path>
                    <path d="M448.154855,439.448894 L623.862983,439.448894 C623.877478,439.17441 623.883788,438.892215 623.869918,438.61079 L448.389867,438.61079 C448.315896,438.899154 448.234991,439.180578 448.154855,439.448894" id="Fill-84" fill="#878787" mask="url(#mask-10)"></path>
                    <path d="M449.220346,433.770143 L622.96516,433.770143 C622.871155,433.488719 622.764822,433.207295 622.643078,432.932039 L449.307416,432.932039 C449.280448,433.213463 449.25425,433.495658 449.220346,433.770143" id="Fill-85" fill="#878787" mask="url(#mask-10)"></path>
                    <path d="M449.582342,428.084606 L619.72261,428.084606 C619.494533,427.803182 619.253356,427.527926 619.005245,427.253441 L449.596211,427.253441 C449.596211,427.527926 449.589277,427.803182 449.582342,428.084606" id="Fill-86" fill="#878787" mask="url(#mask-10)"></path>
                    <path d="M422.135166,338.149884 L804.915902,338.149884 C807.249071,338.149884 809.139956,336.257789 809.139956,333.923897 L809.139956,94.0981784 C809.139956,91.7642864 807.249071,89.8721916 804.915902,89.8721916 L422.135166,89.8721916 C419.802767,89.8721916 417.911883,91.7642864 417.911883,94.0981784 L417.911883,333.923897 C417.911883,336.257789 419.802767,338.149884 422.135166,338.149884" id="Fill-87" fill="#1E2859" mask="url(#mask-10)"></path>
                    <path d="M799.472021,338.149884 L416.691284,338.149884 C414.358115,338.149884 412.467231,336.257789 412.467231,333.923897 L412.467231,94.0981784 C412.467231,91.7642864 414.358115,89.8721916 416.691284,89.8721916 L799.472021,89.8721916 C801.80442,89.8721916 803.695304,91.7642864 803.695304,94.0981784 L803.695304,333.923897 C803.695304,336.257789 801.80442,338.149884 799.472021,338.149884" id="Fill-88" fill="#2F3B7A" mask="url(#mask-10)"></path>
                    <path d="M796.456855,332.702286 L419.706297,332.702286 C418.715393,332.702286 417.911729,331.898107 417.911729,330.906569 L417.911729,97.1156611 C417.911729,96.1241232 418.715393,95.3199443 419.706297,95.3199443 L796.456855,95.3199443 C797.447758,95.3199443 798.251422,96.1241232 798.251422,97.1156611 L798.251422,330.906569 C798.251422,331.898107 797.447758,332.702286 796.456855,332.702286" id="Fill-89" fill="#FFFFFF" mask="url(#mask-10)"></path>
                    <polygon id="Fill-90" fill="#37BAE6" mask="url(#mask-10)" points="434.040338 281.847341 712.334705 281.847341 712.334705 125.603793 434.040338 125.603793"></polygon>
                    <polygon id="Fill-91" fill="#C6C6C6" mask="url(#mask-10)" points="434.040338 297.266295 662.092205 297.266295 662.092205 291.659402 434.040338 291.659402"></polygon>
                    <polygon id="Fill-92" fill="#C6C6C6" mask="url(#mask-10)" points="434.041109 306.890997 485.5912 306.890997 485.5912 301.284105 434.041109 301.284105"></polygon>
                    <polygon id="Fill-93" fill="#C6C6C6" mask="url(#mask-10)" points="672.918171 306.890997 712.334705 306.890997 712.334705 301.284105 672.918171 301.284105"></polygon>
                    <polygon id="Fill-94" fill="#37BAE6" mask="url(#mask-10)" points="728.46501 155.728503 782.121734 155.728503 782.121734 125.603793 728.46501 125.603793"></polygon>
                    <polygon id="Fill-95" fill="#37BAE6" mask="url(#mask-10)" points="728.46501 197.767859 782.121734 197.767859 782.121734 167.643149 728.46501 167.643149"></polygon>
                    <polygon id="Fill-96" fill="#37BAE6" mask="url(#mask-10)" points="728.46501 239.807985 782.121734 239.807985 782.121734 209.683276 728.46501 209.683276"></polygon>
                    <polygon id="Fill-97" fill="#37BAE6" mask="url(#mask-10)" points="728.46501 281.847341 782.121734 281.847341 782.121734 251.722631 728.46501 251.722631"></polygon>
                    <polygon id="Fill-98" fill="#37BAE6" mask="url(#mask-10)" points="728.464239 321.518879 782.121734 321.518879 782.121734 293.761987 728.464239 293.761987"></polygon>
                    <path d="M798.251499,321.519419 L417.911806,321.519419 L417.911806,330.926693 C417.911806,331.907436 418.706224,332.702363 419.685569,332.702363 L796.489294,332.702363 C797.462475,332.702363 798.251499,331.912833 798.251499,330.939029 L798.251499,321.519419 Z" id="Fill-99" fill="#1E2859" mask="url(#mask-10)"></path>
                    <polygon id="Fill-100" fill="#C6C6C6" mask="url(#mask-10)" points="434.041109 115.791732 485.5912 115.791732 485.5912 110.18484 434.041109 110.18484"></polygon>
                    <path d="M796.491529,95.3195588 L419.685492,95.3195588 C418.706147,95.3195588 417.911729,96.1144854 417.911729,97.0952289 L417.911729,103.621954 L798.251422,103.621954 L798.251422,97.0805794 C798.251422,96.1083172 797.463169,95.3195588 796.491529,95.3195588" id="Fill-101" fill="#82B5E0" mask="url(#mask-10)"></path>
                    <polygon id="Fill-102" fill="#C6C6C6" mask="url(#mask-10)" points="628.061686 306.890997 667.47822 306.890997 667.47822 301.284105 628.061686 301.284105"></polygon>
                    <polygon id="Fill-103" fill="#C6C6C6" mask="url(#mask-10)" points="573.187522 306.890997 595.414271 306.890997 595.414271 301.284105 573.187522 301.284105"></polygon>
                    <polygon id="Fill-104" fill="#C6C6C6" mask="url(#mask-10)" points="598.565744 306.890997 620.792493 306.890997 620.792493 301.284105 598.565744 301.284105"></polygon>
                    <polygon id="Fill-105" fill="#1E2859" mask="url(#mask-10)" points="664.98948 338.149884 595.368886 338.149884 597.200439 401.956041 685.07107 401.956041"></polygon>
                    <polygon id="Fill-106" fill="#2F3B7A" mask="url(#mask-10)" points="507.233116 401.956041 651.969734 401.956041 651.969734 396.508751 507.233116 396.508751"></polygon>
                </g>
                <g id="Group-110" transform="translate(588.523861, 339.502815)">
                    <mask id="mask-12" fill="white">
                        <use xlink:href="#path-11"></use>
                    </mask>
                    <g id="Clip-109"></g>
                    <polygon id="Fill-108" mask="url(#mask-12)" points="0.499439734 0.440386887 2.1673076 58.6121899 88.1054653 58.6121899 69.8179923 0.440386887"></polygon>
                </g>
                <g id="Group-169" transform="translate(378.855748, 0.000000)">
                    <path d="M186.287691,97.8289562 C186.287691,117.310691 202.056569,133.104252 221.507856,133.104252 C240.959913,133.104252 256.72802,117.310691 256.72802,97.8289562 C256.72802,78.3472213 240.959913,62.55366 221.507856,62.55366 C202.056569,62.55366 186.287691,78.3472213 186.287691,97.8289562" id="Fill-111" fill="#1E2859"></path>
                    <path d="M131.917381,238.989399 L233.49718,133.104098 L219.57721,121.818904 C210.975934,114.846096 198.277785,116.645431 191.953748,125.740096 C181.152271,141.270547 165.76242,163.223667 158.887562,172.183305 C146.991377,187.685208 107.117356,235.234097 107.117356,235.234097 L114.610058,241.932993 C118.941126,245.804804 126.526272,244.514715 131.917381,238.989399" id="Fill-113" fill="#2F54A4"></path>
                    <path d="M119.532622,244.086408 C123.520872,244.560161 128.232507,242.769313 131.917997,238.990093 L233.500107,133.107107 L221.970622,123.757047 C219.23809,125.81332 216.476283,128.476829 213.986419,131.575512 C201.349901,147.324322 183.388526,169.612309 175.633126,178.895241 C163.402596,193.50442 126.120899,236.497104 119.532622,244.086408" id="Fill-115" fill="#1A3C85"></path>
                    <path d="M277.500044,124.335273 C277.500044,143.817779 293.268922,159.610569 312.720209,159.610569 C332.171495,159.610569 347.940373,143.817779 347.940373,124.335273 C347.940373,104.853538 332.171495,89.0599765 312.720209,89.0599765 C293.268922,89.0599765 277.500044,104.853538 277.500044,124.335273" id="Fill-117" fill="#1E2859"></path>
                    <path d="M203.549023,46.4187497 C203.549023,62.0039833 216.163201,74.638678 231.724847,74.638678 C247.285722,74.638678 259.90067,62.0039833 259.90067,46.4187497 C259.90067,30.8335162 247.285722,18.1988214 231.724847,18.1988214 C216.163201,18.1988214 203.549023,30.8335162 203.549023,46.4187497" id="Fill-119" fill="#1E2859"></path>
                    <path d="M369.654339,269.770215 L327.187994,132.823241 C323.876137,122.14297 312.361289,116.363031 301.836378,120.098271 L289.714472,124.399083 L348.452752,272.183732 C351.082824,278.800068 358.597866,281.994427 365.176899,279.291567 C368.906301,277.759201 370.849966,273.626594 369.654339,269.770215" id="Fill-121" fill="#2F54A4"></path>
                    <path d="M214.332088,117.570329 L300.699993,117.570329 C308.050945,117.570329 313.718619,124.057039 312.741779,131.354685 L294.086293,270.817024 L295.337388,282.052065 L198.832843,282.052065 C198.832843,282.052065 210.157407,218.294502 204.494355,212.685083 C201.489108,209.70831 187.36807,199.93928 187.180868,188.21274 C187.017548,178.010851 202.043781,160.843098 191.450306,148.471513 C190.089047,146.882821 185.478332,142.612101 185.478332,142.612101 L206.832454,117.570329 L214.332088,117.570329 Z" id="Fill-123" fill="#2F54A4"></path>
                    <path d="M214.332088,117.570329 L232.932107,117.570329 C237.352539,117.570329 241.009526,114.136007 241.294566,109.717915 C241.44556,107.363039 241.557265,104.510491 241.557265,101.204252 C241.557265,90.6628659 240.44869,82.4339182 240.44869,82.4339182 L256.328502,82.4339182 L256.328502,107.712567 C256.328502,113.156866 260.734297,117.570329 266.170858,117.570329 L298.892685,117.570329 C298.892685,117.570329 279.513814,147.384351 270.329361,158.192705 C264.001472,165.64081 258.266774,173.727014 237.959597,173.727014 C230.425295,173.727014 222.562042,172.569638 215.245757,164.542073 C205.651463,154.015347 214.332088,117.570329 214.332088,117.570329" id="Fill-125" fill="#FEC1B5"></path>
                    <path d="M189.974877,197.333639 C194.288226,204.797175 202.316341,210.523103 204.494971,212.682768 C205.269972,213.458982 205.728347,215.32313 205.942512,217.978924 C230.204043,219.717303 269.80689,220.856162 280.966593,213.222877 C286.949353,209.124992 298.899464,187.103202 295.449709,180.719884 C293.935915,177.915946 285.72291,192.739626 276.247255,196.690138 C261.498358,202.844295 208.180462,198.983287 189.974877,197.333639" id="Fill-127" fill="#1A3C85"></path>
                    <polygon id="Fill-129" fill="#FFFFFF" points="168.904563 210.959126 231.594884 210.959126 250.674848 282.052142 187.983757 282.052142"></polygon>
                    <path d="M212.018642,251.828255 C212.528632,250.104535 222.733066,252.631474 228.935383,254.157668 C236.267075,252.417745 243.946208,251.249566 243.946208,251.249566 C243.946208,251.249566 242.970139,250.718716 241.699785,249.955619 L242.060322,249.955619 L240.53035,244.25361 C244.575608,244.049912 248.291143,244.094664 251.588363,245.451881 C255.067392,246.884713 260.683452,250.878434 266.116931,251.552027 C288.988699,254.389143 355.903005,259.348116 355.903005,259.348116 C364.491955,260.094238 370.70968,267.887241 369.541786,276.442569 C369.104211,279.639243 366.085098,281.820512 362.918842,281.224849 C362.918842,281.224849 292.378364,267.878753 268.843301,263.546307 C265.586141,262.946786 261.948413,263.061752 259.465483,263.587973 C251.381131,265.30089 239.236885,269.044618 234.636955,268.333217 C230.221915,267.650364 222.37561,263.512357 218.455154,261.09344 C215.285046,259.12127 212.905347,258.138272 212.269785,255.638338 C212.017871,254.646852 211.561037,253.339788 212.018642,251.828255" id="Fill-131" fill="#FEC1B5"></path>
                    <path d="M240.451155,82.433841 C240.451155,82.433841 241.293179,88.7060507 241.506574,97.3169328 C245.103471,101.769746 249.513118,104.906237 254.808699,104.077555 C255.332557,103.996539 255.835614,103.893147 256.329427,103.781267 L256.329427,82.433841 L240.451155,82.433841 Z" id="Fill-133" fill="#E8988C"></path>
                    <path d="M227.062824,59.132609 C227.062824,66.5004686 228.686012,70.0513001 231.170482,75.6838663 C235.187236,84.7893339 239.28719,90.6626345 246.880811,90.6626345 C259.17143,90.6626345 272.48357,75.0357354 272.48357,55.7576988 C272.48357,36.4804339 262.452472,20.8527632 246.880811,20.8527632 C233.155748,20.8527632 229.733726,27.5207957 228.994933,42.9625145 C228.754575,47.985529 227.062824,53.3912494 227.062824,59.132609" id="Fill-135" fill="#FEC1B5"></path>
                    <path d="M229.512397,36.7713212 C232.259566,41.7711882 236.802489,45.7286446 239.927144,47.423044 C250.391965,53.1188801 259.852984,51.3064283 264.77185,55.0717603 C267.156942,56.8988722 268.102967,60.0723989 268.161516,63.6517789 C269.844793,57.3571933 270.015047,50.1451938 265.783357,46.9863272 C260.731215,43.2287111 250.820296,45.7811124 240.273814,39.3453268 C237.592126,37.7033952 233.730219,34.4781723 230.908323,30.4026634 C230.273531,32.2367196 229.822859,34.3593483 229.512397,36.7713212" id="Fill-137" fill="#E8988C"></path>
                    <path d="M252.616279,74.8638264 C252.61705,75.4656622 249.481609,76.9864551 245.611227,76.9895438 C241.741616,76.9918562 238.603865,75.2743093 238.603094,74.4348254 C238.603094,73.8792846 241.740075,74.275879 245.608916,74.2727927 C249.479298,74.2704779 252.616279,74.1578266 252.616279,74.8638264" id="Fill-139" fill="#FFFFFF"></path>
                    <path d="M242.686331,68.3644622 L242.811903,67.7101586 C241.937523,67.5419532 241.566201,67.4694243 240.674103,67.2688124 C239.191894,66.9339447 238.445398,65.9509462 238.627207,64.5698101 C238.806705,63.2141363 239.096368,61.7226636 239.402978,60.1447735 C239.931458,57.4287963 240.476886,54.6210007 240.476886,52.3209075 C240.476886,50.415094 238.63337,48.4915341 235.779888,47.4213465 C232.112886,46.0448399 227.463652,47.2184198 225.335096,48.4915341 L225.675604,49.0640497 C227.691684,47.860378 232.085153,46.7477533 235.546463,48.0455583 C238.493161,49.1512388 239.811279,50.9899244 239.811279,52.3209075 C239.811279,54.5561876 239.271243,57.3323483 238.750468,60.0166905 C238.440775,61.6061544 238.149572,63.106886 237.967763,64.482621 C237.741272,66.1947669 238.721964,67.5118614 240.52696,67.9184864 C241.428303,68.1221847 241.803478,68.1947136 242.686331,68.3644622" id="Fill-141" fill="#29235C"></path>
                    <path d="M264.984475,49.6467503 L265.355797,48.9762434 C262.610939,47.4492779 257.776043,46.6460585 255.954098,46.6445153 L255.925594,46.6445153 C251.341842,46.6445153 248.296536,48.4415354 247.47069,48.9932183 L247.895169,49.630547 C248.675562,49.1089559 251.556778,47.4106986 255.925594,47.4106986 L255.952557,47.4106986 C257.657405,47.4122418 262.390611,48.2031158 264.984475,49.6467503" id="Fill-143" fill="#29235C"></path>
                    <path d="M253.231658,54.1477879 C253.231658,55.3375711 253.947339,56.30128 254.828652,56.30128 C255.711506,56.30128 256.426417,55.3375711 256.426417,54.1477879 C256.426417,52.9580048 255.711506,51.9935243 254.828652,51.9935243 C253.947339,51.9935243 253.231658,52.9580048 253.231658,54.1477879" id="Fill-145" fill="#1E2859"></path>
                    <path d="M255.37123,52.7120237 C255.029952,53.1240497 254.946751,53.6186354 255.185569,53.8169325 C255.423615,54.0144582 255.893546,53.8416233 256.234824,53.4295972 C256.576102,53.0175711 256.659303,52.5229855 256.420485,52.3246883 C256.182438,52.1271627 255.711737,52.2999976 255.37123,52.7120237" id="Fill-147" fill="#FFFFFF"></path>
                    <path d="M230.718424,54.1477879 C230.718424,55.3375711 231.434106,56.30128 232.315419,56.30128 C233.198273,56.30128 233.913184,55.3375711 233.913184,54.1477879 C233.913184,52.9580048 233.198273,51.9935243 232.315419,51.9935243 C231.434106,51.9935243 230.718424,52.9580048 230.718424,54.1477879" id="Fill-149" fill="#1E2859"></path>
                    <path d="M232.857996,52.7120237 C232.516719,53.1240497 232.433518,53.6186354 232.672335,53.8169325 C232.910382,54.0144582 233.380313,53.8416233 233.721591,53.4295972 C234.062098,53.0175711 234.146069,52.5229855 233.907252,52.3246883 C233.669205,52.1271627 233.198504,52.2999976 232.857996,52.7120237" id="Fill-151" fill="#FFFFFF"></path>
                    <path d="M256.426802,73.9859948 C256.426802,77.9156742 259.607695,81.1015462 263.531233,81.1015462 C267.454771,81.1015462 270.635664,77.9156742 270.635664,73.9859948 C270.635664,70.0563154 267.454771,66.8704433 263.531233,66.8704433 C259.607695,66.8704433 256.426802,70.0563154 256.426802,73.9859948" id="Fill-153" fill="#FFA099"></path>
                    <path d="M251.258333,100.277888 C250.760668,109.988278 256.182592,133.104175 281.35471,133.104175 C319.76039,133.104175 325.606792,82.495182 321.791107,70.7833022 C318.334419,60.1740165 304.31276,58.6123297 298.034175,49.9482083 C289.479122,38.1429668 293.541328,23.8107863 279.139101,8.92460826 C273.456019,3.05053613 254.330602,-5.53025412 237.59567,4.94863379 C216.490381,18.1643316 232.850909,34.8143516 240.272736,39.3450953 C250.819217,45.7839672 260.731677,43.2284797 265.783049,46.9891821 C271.09635,50.9435522 269.471622,61.2904992 266.640481,68.1938649 C263.165303,76.6674049 251.704382,91.5821316 251.258333,100.277888" id="Fill-155" fill="#1E2859"></path>
                    <path d="M227.791833,24.0259041 C227.680899,18.1988986 230.554411,13.0092218 235.990201,9.51008652 C252.28987,-0.964171882 272.238051,11.1327285 277.777843,17.0060291 C291.79565,31.8891208 287.843608,46.2243876 296.175252,58.0304007 C302.290516,66.6922073 315.938542,68.2531226 319.306637,78.8608651 C320.724904,83.3283388 320.768815,93.4407241 318.221173,104.248307 C323.236337,90.7108585 323.604578,76.3532158 321.788796,70.7831479 C318.331337,60.176177 304.31353,58.6144901 298.036486,49.9457392 C289.47604,38.1466704 293.538246,23.8114036 279.13602,8.92831187 C273.45679,3.04806706 254.328291,-5.53349477 237.592589,4.94847947 C227.791833,11.0879766 226.071578,17.9674233 227.791833,24.0259041" id="Fill-157" fill="#3C5685"></path>
                    <path d="M228.035581,67.5284505 C228.758967,70.2506003 229.837496,72.6695174 231.166399,75.6802398 C231.816599,77.1524229 232.466798,78.542818 233.139339,79.8375366 C235.147715,78.927067 236.01208,75.6948999 235.07453,72.3215329 C234.076889,68.7267211 231.395972,66.3301799 229.09177,66.9736813 C228.699647,67.0847895 228.345273,67.2699697 228.035581,67.5284505" id="Fill-159" fill="#FFA099"></path>
                    <path d="M261.964591,54.5177627 L261.964591,53.7785848 C259.940807,53.7785848 259.004797,53.2106987 258.099602,52.6613306 C257.899304,52.5394202 257.700546,52.4190531 257.494855,52.3064017 C254.188391,50.4947215 252.168458,52.2917416 250.936623,53.8009608 L251.509014,54.2693125 C252.664582,52.8542267 254.347089,51.4252523 257.140481,52.9553042 C257.336928,53.0633261 257.52567,53.1775205 257.717495,53.2940298 C258.662749,53.867317 259.734345,54.5177627 261.964591,54.5177627" id="Fill-161" fill="#29235C"></path>
                    <path d="M228.678077,54.5177627 C229.292839,54.5177627 229.913764,53.9930853 230.570897,53.4383161 C230.94453,53.1227381 231.33049,52.7971294 231.652508,52.6358683 C232.863543,52.0324893 234.24021,52.6435841 235.335688,54.2693125 L235.948139,53.8565148 C234.645429,51.9221527 232.874329,51.2007213 231.324327,51.9746204 C230.922189,52.1744608 230.501563,52.5293896 230.094803,52.8719731 C229.592516,53.2971161 229.022436,53.7785848 228.678077,53.7785848 L228.678077,54.5177627 Z" id="Fill-163" fill="#29235C"></path>
                    <path d="M0.0442197262,154.456076 C0.793027633,152.587299 8.81806052,159.979078 13.3794716,163.06773 C15.4263673,164.453496 17.4848187,164.468927 19.7913319,164.393312 C22.5677761,164.303037 25.5275703,164.073104 27.5536657,163.904127 C29.0220072,163.781446 30.0157954,163.440405 29.9064017,162.861717 C29.7276739,161.918069 29.7138071,161.469007 28.0282189,160.675818 C26.039872,159.740658 20.8906621,158.810899 19.5109142,157.723736 C18.018691,156.547842 18.2929457,156.095693 19.8937923,156.29862 C22.425256,156.619599 28.3433037,157.153535 32.5087403,158.497635 C35.1834945,159.361038 37.1587449,160.992168 38.1956744,161.786128 C40.3627491,163.444263 41.6577554,165.055331 43.0575332,166.585383 L130.265921,230.943239 C132.859785,232.85754 133.326634,236.556516 131.288983,239.056449 C125.837785,245.746086 115.906065,246.504554 109.505761,240.720757 C109.505761,240.720757 61.5111799,195.860067 38.1402072,176.237133 C37.0901813,175.355212 35.7558857,175.171575 34.7728827,174.932383 C27.3094558,173.122246 18.4770662,173.852165 14.749975,171.664723 C10.6168943,169.238862 -0.724618021,156.375007 0.0442197262,154.456076" id="Fill-165" fill="#FEC1B5"></path>
                    <polygon id="Fill-167" fill="#FFFFFF" points="63.4337365 269.167222 326.202141 269.167222 326.202141 265.775337 63.4337365 265.775337"></polygon>
                </g>
            </g>
        </g>
    </g>
</svg>