<svg xmlns="http://www.w3.org/2000/svg" xmlns:xlink="http://www.w3.org/1999/xlink" width="41" height="41" x="0" y="0" enable-background="new 134 73 41 41" version="1.1" viewBox="134 73 41 41" xml:space="preserve"><rect width="315" height="291" x=".5" y=".5" fill="#B8CC44" stroke="#FFF" display="none"/><path id="bg_1_" fill="#FFF" d="M135.015,93.554c0.002-10.854,8.8-19.653,19.654-19.655	c10.856,0.002,19.653,8.802,19.655,19.657c-0.001,6.679-3.331,12.577-8.422,16.129c-3.184,2.223-7.056,3.525-11.232,3.526	C143.815,113.209,135.016,104.41,135.015,93.554z" opacity="0"/><path fill="none" stroke="#2A98DB" stroke-width="6" d="M137.644,93.554c0.001-9.402,7.623-17.024,17.025-17.026	c9.404,0.002,17.025,7.625,17.026,17.028c0,5.785-2.886,10.896-7.295,13.972c-2.758,1.925-6.112,3.054-9.73,3.055	C145.267,110.58,137.645,102.959,137.644,93.554z" opacity="0"/><path fill="none" stroke="#5FB6F5" stroke-linecap="round" stroke-linejoin="round" stroke-width="5.28" d="M142.114,105.059	c-4.002-4.376-5.601-10.721-3.64-16.765c1.318-4.052,4.011-7.271,7.39-9.312"/></svg>