<?xml version="1.0" encoding="UTF-8"?>
<svg width="109px" height="32px" viewBox="0 0 109 32" version="1.1" xmlns="http://www.w3.org/2000/svg" xmlns:xlink="http://www.w3.org/1999/xlink">
    <!-- Generator: Sketch 63.1 (92452) - https://sketch.com -->
    <title>Group 4@2x</title>
    <desc>Created with Sketch.</desc>
    <g id="Teach++/application" stroke="none" stroke-width="1" fill="none" fill-rule="evenodd">
        <g id="1.1-Úvodná-stránka" transform="translate(-44.000000, -15.000000)">
            <g id="Group-4" transform="translate(40.000000, 12.000000)">
                <g id="Logo">
                    <polygon id="Bound" points="0 0 31.5 0 31.5 31.5 0 31.5"></polygon>
                    <path d="M16.0936975,21.5066364 L25.1001732,14.3366949 L25.1001732,14.3366949 L26.2153841,13.4536134 C26.6700106,13.0936167 26.7467232,12.4332342 26.3867265,11.9786077 C26.3368795,11.9156577 26.2799761,11.8586333 26.2171322,11.8086526 L16.093753,3.75737212 C15.7111573,3.45308781 15.1691892,3.45308781 14.7865935,3.75737212 L4.6600527,11.811167 C4.2061924,12.1721291 4.13088356,12.8326732 4.49184569,13.2865335 C4.54117535,13.3485588 4.59736851,13.4047999 4.65935167,13.4541825 L5.76704822,14.3366949 L5.76704822,14.3366949 L14.7863049,21.5070688 C15.1690453,21.8113502 15.7111585,21.8111708 16.0936975,21.5066364 Z" id="Shape" fill="#5351FB" fill-rule="nonzero"></path>
                    <path d="M15.0833238,24.959922 L6.89620183,18.4511012 C6.44227336,18.0902248 5.7817435,18.1656584 5.4208671,18.6195869 C5.41809137,18.6230783 5.41533792,18.6265874 5.41260692,18.630114 L5.24052108,18.8523276 C4.88545863,19.310818 4.96930358,19.970333 5.42779403,20.3253954 C5.42945636,20.3266828 5.43112255,20.3279651 5.43279258,20.3292424 L15.1101076,27.730945 C15.4865647,28.0188784 16.0092432,28.0189262 16.3857529,27.7310616 L26.066187,20.3297794 C26.5268665,19.9775618 26.6147923,19.3185785 26.2625747,18.857899 C26.2610691,18.8559297 26.2595564,18.8539657 26.2580369,18.8520071 L26.0745597,18.6155203 C25.7190882,18.157347 25.0594986,18.0740908 24.6013253,18.4295623 C24.5979958,18.4321455 24.5946819,18.4347487 24.5913838,18.4373718 L16.3903281,24.9597985 C16.0077904,25.2640367 15.4659189,25.2640878 15.0833238,24.959922 Z" id="Path" fill="#5351FB" opacity="0.3"></path>
                    <path d="M15.0833238,31.1908734 L6.89620183,24.6820527 C6.44227336,24.3211763 5.7817435,24.3966099 5.4208671,24.8505384 C5.41809137,24.8540298 5.41533792,24.8575389 5.41260692,24.8610654 L5.24052108,25.0832791 C4.88545863,25.5417695 4.96930358,26.2012844 5.42779403,26.5563469 C5.42945636,26.5576342 5.43112255,26.5589166 5.43279258,26.5601939 L15.1101076,33.9618964 C15.4865647,34.2498299 16.0092432,34.2498777 16.3857529,33.9620131 L26.066187,26.5607308 C26.5268665,26.2085133 26.6147923,25.54953 26.2625747,25.0888505 C26.2610691,25.0868812 26.2595564,25.0849172 26.2580369,25.0829586 L26.0745597,24.8464718 C25.7190882,24.3882985 25.0594986,24.3050422 24.6013253,24.6605138 C24.5979958,24.663097 24.5946819,24.6657002 24.5913838,24.6683232 L16.3903281,31.19075 C16.0077904,31.4949881 15.4659189,31.4950393 15.0833238,31.1908734 Z" id="Path-Copy" fill="#5351FB" opacity="0.1"></path>
                </g>
                <text id="TEACH-++" font-family="Quicksand-Bold, Quicksand" font-size="15" font-weight="bold" fill="#15181A">
                    <tspan x="44" y="24">TEACH ++</tspan>
                </text>
            </g>
        </g>
    </g>
</svg>